<svg width="15" height="11" viewBox="0 0 15 11" fill="none" xmlns="http://www.w3.org/2000/svg">
<path d="M14.0492 0.202405C14.2429 0.202498 14.4316 0.274169 14.5728 0.405305C14.7145 0.536988 14.7975 0.718909 14.7975 0.91206V9.5269C14.7975 9.85451 14.6566 10.1652 14.4125 10.3919C14.1688 10.6181 13.8414 10.7433 13.5029 10.7433H1.49713C1.1586 10.7433 0.831193 10.6181 0.587544 10.3919C0.343376 10.1652 0.202529 9.85451 0.202529 9.5269V0.91206L0.206488 0.839808C0.224349 0.673949 0.303282 0.520432 0.427203 0.405305C0.568426 0.27417 0.757068 0.202498 0.950784 0.202405H14.0492ZM8.00082 7.0149C7.86217 7.13303 7.68308 7.19602 7.5 7.19602C7.31687 7.19602 7.13785 7.13211 6.99918 7.01391L1.70003 2.5026V9.324H13.3V2.5026L8.00082 7.0149ZM7.5 5.53224L12.0944 1.62172H2.90555L7.5 5.53224Z" fill="#1A202C" stroke="#1A202C" stroke-width="0.4"/>
</svg>
