<svg width="68" height="68" viewBox="0 0 68 68" fill="none" xmlns="http://www.w3.org/2000/svg">
<rect width="68" height="68" rx="4" fill="white"/>
<rect x="2" y="22.2773" width="64.1667" height="39.7222" rx="6" fill="#D8F3F5"/>
<rect x="13.4583" y="13.875" width="6.11111" height="20.625" rx="3.05556" fill="#15A5AE"/>
<rect x="21.0972" y="7" width="6.11111" height="27.5" rx="3.05556" fill="#E29720"/>
<rect x="28.7361" y="10.8193" width="6.11111" height="23.6806" rx="3.05556" fill="#15A5AE"/>
<rect x="36.375" y="25.333" width="6.11111" height="9.16667" rx="3.05556" fill="#15A5AE"/>
<rect x="5.81946" y="25.333" width="6.11111" height="9.16667" rx="3.05556" fill="#15A5AE"/>
<circle cx="8.87501" cy="43.6669" r="3.05556" fill="#898989"/>
<circle cx="8.87501" cy="43.6669" r="3.05556" fill="#6CC8CE"/>
<circle cx="42.4861" cy="39.8475" r="3.05556" fill="#6CC8CE"/>
<circle cx="58.5278" cy="46.7225" r="3.05556" fill="#6CC8CE"/>
<line x1="10.9131" y1="43.8172" x2="24.3032" y2="48.5037" stroke="#6CC8CE" stroke-width="2" stroke-linecap="round"/>
<line x1="44.8277" y1="39.7218" x2="58.0651" y2="46.1499" stroke="#6CC8CE" stroke-width="2" stroke-linecap="round"/>
<line x1="27.5138" y1="47.7227" x2="40.3414" y2="39.5419" stroke="#6CC8CE" stroke-width="2" stroke-linecap="round"/>
<path d="M63.6389 24.5698C64.1912 24.5698 64.645 24.1205 64.5795 23.5721C64.4885 22.8113 64.2937 22.065 63.9993 21.3542C63.577 20.3347 62.9581 19.4084 62.1778 18.6281C61.3975 17.8478 60.4712 17.2289 59.4517 16.8066C58.7409 16.5122 57.9946 16.3174 57.2338 16.2264C56.6854 16.1609 56.2361 16.6147 56.2361 17.167L56.2361 23.5698C56.2361 24.1221 56.6838 24.5698 57.2361 24.5698H63.6389Z" fill="#15A5AE"/>
<path d="M51.0016 30.568C50.611 30.9585 50.6078 31.5971 51.0419 31.9385C52.0779 32.7532 53.295 33.3158 54.5968 33.5748C56.2268 33.899 57.9163 33.7326 59.4517 33.0966C60.9871 32.4606 62.2995 31.3836 63.2228 30.0018C63.9602 28.8982 64.423 27.6397 64.5795 26.3311C64.645 25.7827 64.1912 25.3334 63.6389 25.3334L56.6503 25.3334C56.3851 25.3334 56.1308 25.4388 55.9432 25.6263L51.0016 30.568Z" fill="#6CC8CE"/>
<path d="M55.4722 17.9308C55.4722 17.3785 55.0229 16.9246 54.4746 16.9902C53.1659 17.1467 51.9075 17.6095 50.8039 18.3469C49.4221 19.2702 48.3451 20.5825 47.7091 22.1179C47.0731 23.6534 46.9067 25.3429 47.2309 26.9729C47.4899 28.2746 48.0524 29.4917 48.8671 30.5277C49.2085 30.9619 49.8472 30.9586 50.2377 30.5681L55.1793 25.6264C55.3669 25.4389 55.4722 25.1846 55.4722 24.9193V17.9308Z" fill="#E29720"/>
<circle cx="25.6806" cy="49.0136" r="3.05556" fill="#E29720"/>
</svg>
