<svg width="68" height="68" viewBox="0 0 68 68" fill="none" xmlns="http://www.w3.org/2000/svg">
<rect width="68" height="68" rx="4" fill="white"/>
<path d="M1.00006 33.29C1.00006 28.8718 4.58178 25.29 9.00006 25.29H21.0231C25.4414 25.29 29.0231 28.8718 29.0231 33.29V48.421C29.0231 48.9733 28.5754 49.421 28.0231 49.421H2.00006C1.44778 49.421 1.00006 48.9733 1.00006 48.421L1.00006 33.29Z" fill="#15A5AE"/>
<circle cx="14.734" cy="19.7302" r="9.73023" fill="#15A5AE"/>
<path d="M39 36.29C39 31.8718 42.5817 28.29 47 28.29H58.2446C62.6629 28.29 66.2447 31.8718 66.2447 36.29V51.421C66.2447 51.9733 65.7969 52.421 65.2447 52.421H40C39.4477 52.421 39 51.9733 39 51.421V36.29Z" fill="#97D9DD"/>
<circle cx="52.5115" cy="22.7302" r="9.73023" fill="#97D9DD"/>
<path d="M20 44.791C20 40.3727 23.5817 36.791 28 36.791H40.0231C44.4413 36.791 48.0231 40.3727 48.0231 44.791V60.7004C48.0231 61.2527 47.5754 61.7004 47.0231 61.7004H21C20.4477 61.7004 20 61.2527 20 60.7004V44.791Z" fill="#0D6368"/>
<circle cx="34.0118" cy="30.7302" r="9.73023" fill="#0D6368"/>
<path d="M57 24C57 26.2091 55.2091 28 53 28C50.7909 28 49 26.2091 49 24" stroke="black" stroke-width="2" stroke-linecap="round"/>
<path d="M19 20C19 22.2091 17.2091 24 15 24C12.7909 24 11 22.2091 11 20" stroke="black" stroke-width="2" stroke-linecap="round"/>
<path d="M38 31C38 33.2091 36.2091 35 34 35C31.7909 35 30 33.2091 30 31" stroke="#E29720" stroke-width="2" stroke-linecap="round"/>
<ellipse cx="50" cy="18.5" rx="1" ry="1.5" fill="black"/>
<ellipse cx="56" cy="18.5" rx="1" ry="1.5" fill="black"/>
<ellipse cx="12" cy="15.5" rx="1" ry="1.5" fill="black"/>
<ellipse cx="18" cy="15.5" rx="1" ry="1.5" fill="black"/>
<ellipse cx="31" cy="26.5" rx="1" ry="1.5" fill="#E29720"/>
<ellipse cx="37" cy="26.5" rx="1" ry="1.5" fill="#E29720"/>
</svg>
