<svg width="68" height="68" viewBox="0 0 68 68" fill="none" xmlns="http://www.w3.org/2000/svg">
<rect width="68" height="68" rx="4" fill="white"/>
<rect x="2.0275" y="17.7373" width="64.0717" height="41.7437" rx="1" fill="#C3EBED"/>
<path d="M2 10C2 9.44772 2.44772 9 3 9H65.0717C65.624 9 66.0717 9.44772 66.0717 10V19.6786H2V10Z" fill="#1A202C"/>
<path d="M30.1802 28.4153C30.1802 26.8068 31.4841 25.5029 33.0926 25.5029H41.8296V31.3276H33.0926C31.4841 31.3276 30.1802 30.0237 30.1802 28.4153Z" fill="#E29720"/>
<path d="M61.2453 28.4153C61.2453 26.8068 59.9414 25.5029 58.333 25.5029H41.8296V31.3276H58.333C59.9414 31.3276 61.2453 30.0237 61.2453 28.4153Z" fill="#15A5AE"/>
<path d="M7.8522 42.0071C7.8522 40.3986 9.15611 39.0947 10.7646 39.0947H27.2679V44.9194H10.7646C9.1561 44.9194 7.8522 43.6155 7.8522 42.0071Z" fill="#0D6368"/>
<path d="M60.2745 42.0071C60.2745 40.3986 58.9706 39.0947 57.3622 39.0947H27.2679V44.9194H57.3622C58.9706 44.9194 60.2745 43.6155 60.2745 42.0071Z" fill="#EEFCFD"/>
<path d="M60.2745 51.7141C60.2745 50.1057 58.9706 48.8018 57.3622 48.8018H40.8589V54.6265H57.3622C58.9706 54.6265 60.2745 53.3226 60.2745 51.7141Z" fill="#E29720"/>
<path d="M7.8522 51.7141C7.8522 50.1057 9.15611 48.8018 10.7646 48.8018H40.8589V54.6265H10.7646C9.15611 54.6265 7.8522 53.3226 7.8522 51.7141Z" fill="#97D9DD"/>
<path d="M26.2971 28.9008C26.2971 30.8424 21.7334 34.2401 16.1039 34.2401C10.4743 34.2401 5.91064 30.8424 5.91064 28.9008C5.91064 26.9593 10.4743 23.5615 16.1039 23.5615C21.7334 23.5615 26.2971 26.9593 26.2971 28.9008Z" fill="white"/>
<circle cx="16.1039" cy="28.9007" r="3.39774" fill="#15A5AE"/>
</svg>
