<svg width="14" height="20" viewBox="0 0 14 20" fill="none" xmlns="http://www.w3.org/2000/svg">
<path d="M6.8841 18.333L7.22221 18.6442L6.8841 19.0116L6.54599 18.6442L6.8841 18.333ZM6.4246 0.833006C6.4246 0.579231 6.63033 0.373506 6.8841 0.373506C7.13788 0.373506 7.3436 0.579231 7.3436 0.833006L6.4246 0.833006ZM13.3262 11.333L13.6643 11.6442L7.22221 18.6442L6.8841 18.333L6.54599 18.0218L12.9881 11.0218L13.3262 11.333ZM6.8841 18.333L6.54599 18.6442L0.103918 11.6442L0.442028 11.333L0.780138 11.0218L7.22221 18.0218L6.8841 18.333ZM6.8841 18.333L6.4246 18.333L6.4246 0.833006L6.8841 0.833006L7.3436 0.833006L7.3436 18.333L6.8841 18.333Z" fill="#171923"/>
</svg>
