<svg width="32" height="32" viewBox="0 0 32 32" fill="none" xmlns="http://www.w3.org/2000/svg">
<path d="M27.6671 5.88037H4.37258C4.11516 5.88037 3.86828 5.98263 3.68626 6.16465C3.50424 6.34668 3.40198 6.59356 3.40198 6.85098V23.3513C3.40198 23.8661 3.6065 24.3599 3.97054 24.7239C4.33459 25.088 4.82835 25.2925 5.34319 25.2925H26.6965C27.2113 25.2925 27.7051 25.088 28.0691 24.7239C28.4332 24.3599 28.6377 23.8661 28.6377 23.3513V6.85098C28.6377 6.59356 28.5354 6.34668 28.3534 6.16465C28.1714 5.98263 27.9245 5.88037 27.6671 5.88037ZM25.1714 7.82158L16.0198 16.2112L6.86825 7.82158H25.1714ZM26.6965 23.3513H5.34319V9.05789L15.3635 18.2435C15.5425 18.4078 15.7768 18.499 16.0198 18.499C16.2629 18.499 16.4971 18.4078 16.6762 18.2435L26.6965 9.05789V23.3513Z" fill="#11639F"/>
</svg>
