<svg width="153" height="153" viewBox="0 0 153 153" fill="none" xmlns="http://www.w3.org/2000/svg">
<circle cx="76.5" cy="76.5" r="76.5" fill="#F8EEE3"/>
<rect x="102" y="31.875" width="2.55" height="31.875" fill="#B9B9B9"/>
<path d="M103.275 118.575C94.1212 118.575 86.7004 111.154 86.7004 102C86.7004 92.8457 99.4503 72.6748 103.275 72.6748C107.738 72.6748 119.85 92.8457 119.85 102C119.85 111.154 112.429 118.575 103.275 118.575Z" fill="#C8E5F9"/>
<circle cx="103.275" cy="67.5746" r="5.1" transform="rotate(90 103.275 67.5746)" fill="#4C6365"/>
<circle cx="103.276" cy="28.05" r="5.1" fill="#B9B9B9"/>
<circle cx="103.275" cy="28.0498" r="2.55" fill="#C8E5F9"/>
<g opacity="0.3">
<mask id="mask0_21_173" style="mask-type:alpha" maskUnits="userSpaceOnUse" x="86" y="22" width="34" height="97">
<rect x="102" y="31.875" width="2.55" height="31.875" fill="#EAEAEA"/>
<path d="M103.275 118.575C94.1212 118.575 86.7004 111.154 86.7004 102C86.7004 92.8457 99.4503 72.6748 103.275 72.6748C107.738 72.6748 119.85 92.8457 119.85 102C119.85 111.154 112.429 118.575 103.275 118.575Z" fill="#C8E5F9"/>
<circle cx="103.275" cy="67.5746" r="5.1" transform="rotate(90 103.275 67.5746)" fill="#4C6365"/>
<circle cx="103.276" cy="28.05" r="5.1" fill="#EAEAEA"/>
<circle cx="103.275" cy="28.0498" r="2.55" fill="#7BE7EE"/>
</mask>
<g mask="url(#mask0_21_173)">
<rect x="103.275" y="17.8501" width="16.575" height="102" fill="black"/>
</g>
</g>
<path d="M89.931 99.3199C90.0106 99.0144 90.2696 98.7891 90.5833 98.7527L91.2284 98.6777C91.8865 98.6012 92.4159 99.2099 92.2489 99.851C91.6158 102.281 91.9156 104.861 93.0893 107.081C93.3989 107.667 93.0232 108.381 92.3651 108.457L91.7199 108.532C91.4063 108.569 91.1025 108.409 90.955 108.13C89.5248 105.424 89.1595 102.281 89.931 99.3199Z" fill="white"/>
<rect x="52.2751" y="31.8752" width="2.55" height="31.875" fill="#B9B9B9"/>
<path d="M53.5502 118.575C44.3961 118.575 36.9753 111.154 36.9753 102C36.9753 92.8457 49.7252 72.6748 53.5502 72.6748C58.0127 72.6748 70.1252 92.8457 70.1252 102C70.1252 111.154 62.7044 118.575 53.5502 118.575Z" fill="#C8E5F9"/>
<circle cx="53.5501" cy="67.5746" r="5.1" transform="rotate(90 53.5501 67.5746)" fill="#4C6365"/>
<circle cx="53.5499" cy="28.0502" r="5.1" fill="#B9B9B9"/>
<circle cx="53.5502" cy="28.0498" r="2.55" fill="#C8E5F9"/>
<g opacity="0.3">
<mask id="mask1_21_173" style="mask-type:alpha" maskUnits="userSpaceOnUse" x="36" y="22" width="35" height="97">
<rect x="52.2751" y="31.8752" width="2.55" height="31.875" fill="#EAEAEA"/>
<path d="M53.5502 118.575C44.3961 118.575 36.9753 111.154 36.9753 102C36.9753 92.8457 49.7252 72.6748 53.5502 72.6748C58.0127 72.6748 70.1252 92.8457 70.1252 102C70.1252 111.154 62.7044 118.575 53.5502 118.575Z" fill="#C8E5F9"/>
<circle cx="53.5501" cy="67.5746" r="5.1" transform="rotate(90 53.5501 67.5746)" fill="#4C6365"/>
<circle cx="53.5499" cy="28.0502" r="5.1" fill="#EAEAEA"/>
<circle cx="53.5502" cy="28.0498" r="2.55" fill="#7BE7EE"/>
</mask>
<g mask="url(#mask1_21_173)">
<rect x="53.5498" y="17.8501" width="16.575" height="102" fill="black"/>
</g>
</g>
<path d="M40.2057 99.3202C40.2853 99.0146 40.5443 98.7894 40.8579 98.7529L41.5031 98.6779C42.1612 98.6014 42.6906 99.2101 42.5236 99.8513C41.8904 102.282 42.1902 104.861 43.3639 107.081C43.6735 107.667 43.2979 108.381 42.6398 108.457L41.9946 108.532C41.681 108.569 41.3772 108.409 41.2296 108.13C39.7995 105.424 39.4342 102.282 40.2057 99.3202Z" fill="white"/>
</svg>
