<svg width="32" height="32" viewBox="0 0 32 32" fill="none" xmlns="http://www.w3.org/2000/svg">
<path d="M26.4708 2.96826H5.11754C4.6027 2.96826 4.10895 3.17278 3.7449 3.53683C3.38085 3.90088 3.17633 4.39463 3.17633 4.90947V26.2628C3.17633 26.7776 3.38085 27.2714 3.7449 27.6354C4.10895 27.9995 4.6027 28.204 5.11754 28.204H26.4708C26.9857 28.204 27.4794 27.9995 27.8435 27.6354C28.2075 27.2714 28.4121 26.7776 28.4121 26.2628V4.90947C28.4121 4.39463 28.2075 3.90088 27.8435 3.53683C27.4794 3.17278 26.9857 2.96826 26.4708 2.96826ZM26.4708 26.2628H5.11754V4.90947H26.4708V26.2628ZM11.9118 13.6449V21.4098C11.9118 21.6672 11.8095 21.9141 11.6275 22.0961C11.4455 22.2781 11.1986 22.3804 10.9412 22.3804C10.6837 22.3804 10.4369 22.2781 10.2548 22.0961C10.0728 21.9141 9.97057 21.6672 9.97057 21.4098V13.6449C9.97057 13.3875 10.0728 13.1406 10.2548 12.9586C10.4369 12.7766 10.6837 12.6743 10.9412 12.6743C11.1986 12.6743 11.4455 12.7766 11.6275 12.9586C11.8095 13.1406 11.9118 13.3875 11.9118 13.6449ZM22.5884 17.042V21.4098C22.5884 21.6672 22.4862 21.9141 22.3041 22.0961C22.1221 22.2781 21.8752 22.3804 21.6178 22.3804C21.3604 22.3804 21.1135 22.2781 20.9315 22.0961C20.7495 21.9141 20.6472 21.6672 20.6472 21.4098V17.042C20.6472 16.3985 20.3916 15.7813 19.9365 15.3262C19.4815 14.8712 18.8643 14.6155 18.2207 14.6155C17.5772 14.6155 16.96 14.8712 16.5049 15.3262C16.0498 15.7813 15.7942 16.3985 15.7942 17.042V21.4098C15.7942 21.6672 15.6919 21.9141 15.5099 22.0961C15.3279 22.2781 15.081 22.3804 14.8236 22.3804C14.5662 22.3804 14.3193 22.2781 14.1373 22.0961C13.9552 21.9141 13.853 21.6672 13.853 21.4098V13.6449C13.8542 13.4072 13.9426 13.1781 14.1015 13.0013C14.2603 12.8244 14.4786 12.712 14.7149 12.6853C14.9511 12.6587 15.1889 12.7197 15.3832 12.8568C15.5774 12.9938 15.7146 13.1974 15.7687 13.429C16.4253 12.9835 17.1908 12.7254 17.9831 12.6822C18.7753 12.6391 19.5644 12.8125 20.2655 13.184C20.9666 13.5554 21.5533 14.1108 21.9625 14.7905C22.3718 15.4702 22.5882 16.2486 22.5884 17.042ZM12.3971 10.2478C12.3971 10.5358 12.3117 10.8172 12.1517 11.0567C11.9917 11.2961 11.7644 11.4827 11.4983 11.5929C11.2323 11.7031 10.9396 11.7319 10.6571 11.6757C10.3747 11.6196 10.1153 11.4809 9.91169 11.2773C9.70808 11.0737 9.56941 10.8143 9.51324 10.5318C9.45706 10.2494 9.48589 9.95668 9.59609 9.69065C9.70628 9.42461 9.89289 9.19723 10.1323 9.03726C10.3717 8.87728 10.6532 8.79189 10.9412 8.79189C11.3273 8.79189 11.6976 8.94528 11.9707 9.21832C12.2437 9.49135 12.3971 9.86167 12.3971 10.2478Z" fill="#11639F"/>
</svg>
