<svg width="112" height="50" viewBox="0 0 112 50" fill="none" xmlns="http://www.w3.org/2000/svg">
<path d="M8.456 18.308C7.07467 18.308 5.81467 18.0093 4.676 17.412C3.556 16.796 2.66 15.9467 1.988 14.864C1.33467 13.7627 1.008 12.4933 1.008 11.056C1.008 9.58133 1.344 8.30267 2.016 7.22C2.688 6.13733 3.59333 5.29733 4.732 4.7C5.88933 4.084 7.196 3.776 8.652 3.776C10.2573 3.776 11.5453 4.10267 12.516 4.756C13.5053 5.39067 14.224 6.25867 14.672 7.36C15.12 8.46133 15.344 9.69333 15.344 11.056C15.344 11.8773 15.2133 12.7173 14.952 13.576C14.6907 14.416 14.2893 15.2 13.748 15.928C13.2067 16.6373 12.4973 17.216 11.62 17.664C10.7427 18.0933 9.688 18.308 8.456 18.308ZM9.632 15.508C10.7333 15.508 11.6853 15.3213 12.488 14.948C13.2907 14.5747 13.9067 14.052 14.336 13.38C14.7653 12.708 14.98 11.9333 14.98 11.056C14.98 10.104 14.756 9.30133 14.308 8.648C13.8787 7.976 13.2627 7.472 12.46 7.136C11.676 6.78133 10.7333 6.604 9.632 6.604C8.08267 6.604 6.87867 7.01467 6.02 7.836C5.16133 8.63867 4.732 9.712 4.732 11.056C4.732 11.952 4.93733 12.736 5.348 13.408C5.75867 14.0613 6.328 14.5747 7.056 14.948C7.80267 15.3213 8.66133 15.508 9.632 15.508ZM14.98 4.084H18.62V18H15.232C15.232 18 15.204 17.8227 15.148 17.468C15.1107 17.0947 15.0733 16.628 15.036 16.068C14.9987 15.508 14.98 14.9573 14.98 14.416V4.084ZM21.9144 4.084H25.5544V18H21.9144V4.084ZM30.9024 7.08C29.857 7.08 28.9517 7.28533 28.1864 7.696C27.421 8.088 26.805 8.57333 26.3384 9.152C25.8717 9.73067 25.545 10.2907 25.3584 10.832L25.3304 9.292C25.349 9.068 25.4237 8.74133 25.5544 8.312C25.685 7.864 25.881 7.388 26.1424 6.884C26.4037 6.36133 26.749 5.86667 27.1784 5.4C27.6077 4.91467 28.1304 4.52267 28.7464 4.224C29.3624 3.92533 30.081 3.776 30.9024 3.776V7.08ZM39.9287 18.308C38.5473 18.308 37.2873 18.0093 36.1487 17.412C35.0287 16.796 34.1327 15.9467 33.4607 14.864C32.8073 13.7627 32.4807 12.4933 32.4807 11.056C32.4807 9.58133 32.8167 8.30267 33.4887 7.22C34.1607 6.13733 35.066 5.29733 36.2047 4.7C37.362 4.084 38.6687 3.776 40.1247 3.776C41.73 3.776 43.018 4.10267 43.9887 4.756C44.978 5.39067 45.6967 6.25867 46.1447 7.36C46.5927 8.46133 46.8167 9.69333 46.8167 11.056C46.8167 11.8773 46.686 12.7173 46.4247 13.576C46.1633 14.416 45.762 15.2 45.2207 15.928C44.6793 16.6373 43.97 17.216 43.0927 17.664C42.2153 18.0933 41.1607 18.308 39.9287 18.308ZM41.1047 15.508C42.206 15.508 43.158 15.3213 43.9607 14.948C44.7633 14.5747 45.3793 14.052 45.8087 13.38C46.238 12.708 46.4527 11.9333 46.4527 11.056C46.4527 10.104 46.2287 9.30133 45.7807 8.648C45.3513 7.976 44.7353 7.472 43.9327 7.136C43.1487 6.78133 42.206 6.604 41.1047 6.604C39.5553 6.604 38.3513 7.01467 37.4927 7.836C36.634 8.63867 36.2047 9.712 36.2047 11.056C36.2047 11.952 36.41 12.736 36.8207 13.408C37.2313 14.0613 37.8007 14.5747 38.5287 14.948C39.2753 15.3213 40.134 15.508 41.1047 15.508ZM46.4527 4.084H50.0927V18H46.7047C46.7047 18 46.6767 17.8227 46.6207 17.468C46.5833 17.0947 46.546 16.628 46.5087 16.068C46.4713 15.508 46.4527 14.9573 46.4527 14.416V4.084ZM53.387 4.084H57.027V18H53.387V4.084ZM63.495 3.776C64.3537 3.776 65.147 3.888 65.875 4.112C66.603 4.336 67.2377 4.68133 67.779 5.148C68.3204 5.61467 68.7404 6.212 69.039 6.94C69.3377 7.64933 69.487 8.49867 69.487 9.488V18H65.847V10.132C65.847 8.956 65.5577 8.09733 64.979 7.556C64.419 6.996 63.495 6.716 62.207 6.716C61.2364 6.716 60.359 6.90267 59.575 7.276C58.791 7.64933 58.1564 8.12533 57.671 8.704C57.1857 9.264 56.9057 9.852 56.831 10.468L56.803 9.04C56.8964 8.38667 57.111 7.752 57.447 7.136C57.783 6.52 58.231 5.96 58.791 5.456C59.3697 4.93333 60.051 4.52267 60.835 4.224C61.619 3.92533 62.5057 3.776 63.495 3.776Z" fill="#052123"/>
<rect x="76" y="8" width="25" height="2" fill="#052123"/>
<path d="M0 34H20V35V36H0V34Z" fill="#052123"/>
<path d="M32.624 41.872C31.112 41.872 29.7773 41.648 28.62 41.2C27.4813 40.7333 26.5947 40.052 25.96 39.156C25.3253 38.26 25.008 37.1773 25.008 35.908C25.008 34.6573 25.316 33.5747 25.932 32.66C26.548 31.7453 27.4253 31.036 28.564 30.532C29.7213 30.028 31.0747 29.776 32.624 29.776C33.0533 29.776 33.464 29.804 33.856 29.86C34.2667 29.916 34.668 29.9907 35.06 30.084L42.088 30.112V32.856C41.136 32.8747 40.1653 32.7627 39.176 32.52C38.2053 32.2587 37.3467 31.9787 36.6 31.68L36.516 31.484C37.1507 31.7827 37.748 32.156 38.308 32.604C38.868 33.0333 39.316 33.5373 39.652 34.116C40.0067 34.676 40.184 35.3293 40.184 36.076C40.184 37.2893 39.876 38.3347 39.26 39.212C38.644 40.0707 37.7667 40.7333 36.628 41.2C35.508 41.648 34.1733 41.872 32.624 41.872ZM37.3 49.74V49.068C37.3 48.2093 37.02 47.612 36.46 47.276C35.9187 46.94 35.172 46.772 34.22 46.772H29.88C29.04 46.772 28.3307 46.7067 27.752 46.576C27.192 46.4453 26.744 46.2587 26.408 46.016C26.072 45.7733 25.8293 45.484 25.68 45.148C25.5307 44.8307 25.456 44.4853 25.456 44.112C25.456 43.3653 25.6987 42.8053 26.184 42.432C26.6693 42.04 27.3227 41.7787 28.144 41.648C28.9653 41.5173 29.8707 41.4893 30.86 41.564L32.624 41.872C31.448 41.9093 30.5707 42.012 29.992 42.18C29.432 42.3293 29.152 42.6373 29.152 43.104C29.152 43.384 29.264 43.608 29.488 43.776C29.712 43.9253 30.0293 44 30.44 44H35.004C36.2547 44 37.3187 44.1307 38.196 44.392C39.092 44.672 39.7733 45.1293 40.24 45.764C40.7067 46.4173 40.94 47.304 40.94 48.424V49.74H37.3ZM32.624 39.24C33.4267 39.24 34.1267 39.1093 34.724 38.848C35.34 38.5867 35.816 38.2133 36.152 37.728C36.488 37.224 36.656 36.6267 36.656 35.936C36.656 35.2267 36.488 34.62 36.152 34.116C35.816 33.612 35.3493 33.2293 34.752 32.968C34.1547 32.688 33.4453 32.548 32.624 32.548C31.8213 32.548 31.112 32.688 30.496 32.968C29.88 33.2293 29.404 33.612 29.068 34.116C28.732 34.62 28.564 35.2267 28.564 35.936C28.564 36.6267 28.732 37.224 29.068 37.728C29.404 38.2133 29.8707 38.5867 30.468 38.848C31.084 39.1093 31.8027 39.24 32.624 39.24ZM60.5652 44H56.9252V30.084H60.5652V44ZM57.1212 37.308L57.1492 38.26C57.1118 38.5213 57.0185 38.904 56.8692 39.408C56.7198 39.8933 56.4865 40.416 56.1692 40.976C55.8705 41.536 55.4785 42.0773 54.9932 42.6C54.5078 43.104 53.9105 43.524 53.2012 43.86C52.4918 44.1773 51.6518 44.336 50.6812 44.336C49.9158 44.336 49.1598 44.2427 48.4132 44.056C47.6852 43.8693 47.0225 43.5613 46.4252 43.132C45.8278 42.684 45.3518 42.0867 44.9972 41.34C44.6425 40.5933 44.4652 39.6507 44.4652 38.512V30.084H48.1052V37.896C48.1052 38.792 48.2452 39.5013 48.5252 40.024C48.8238 40.528 49.2532 40.8827 49.8132 41.088C50.3732 41.2933 51.0358 41.396 51.8012 41.396C52.8092 41.396 53.6772 41.1813 54.4052 40.752C55.1332 40.304 55.7212 39.7627 56.1692 39.128C56.6358 38.4933 56.9532 37.8867 57.1212 37.308ZM63.8792 30.084H67.5192V44H63.8792V30.084ZM72.8672 33.08C71.8219 33.08 70.9166 33.2853 70.1512 33.696C69.3859 34.088 68.7699 34.5733 68.3032 35.152C67.8366 35.7307 67.5099 36.2907 67.3232 36.832L67.2952 35.292C67.3139 35.068 67.3886 34.7413 67.5192 34.312C67.6499 33.864 67.8459 33.388 68.1072 32.884C68.3686 32.3613 68.7139 31.8667 69.1432 31.4C69.5726 30.9147 70.0952 30.5227 70.7112 30.224C71.3272 29.9253 72.0459 29.776 72.8672 29.776V33.08ZM87.8015 39.38H91.3295C91.1802 40.332 90.7788 41.1813 90.1255 41.928C89.4908 42.6747 88.6228 43.2627 87.5215 43.692C86.4202 44.1213 85.0762 44.336 83.4895 44.336C81.7162 44.336 80.1482 44.056 78.7855 43.496C77.4228 42.9173 76.3588 42.0867 75.5935 41.004C74.8282 39.9213 74.4455 38.6147 74.4455 37.084C74.4455 35.5533 74.8188 34.2467 75.5655 33.164C76.3122 32.0627 77.3482 31.2227 78.6735 30.644C80.0175 30.0653 81.5855 29.776 83.3775 29.776C85.2068 29.776 86.7282 30.0653 87.9415 30.644C89.1548 31.2227 90.0508 32.1 90.6295 33.276C91.2268 34.4333 91.4788 35.9173 91.3855 37.728H78.1135C78.2068 38.4373 78.4682 39.0813 78.8975 39.66C79.3455 40.2387 79.9428 40.696 80.6895 41.032C81.4548 41.368 82.3602 41.536 83.4055 41.536C84.5628 41.536 85.5242 41.34 86.2895 40.948C87.0735 40.5373 87.5775 40.0147 87.8015 39.38ZM83.2095 32.548C81.8655 32.548 80.7735 32.8467 79.9335 33.444C79.0935 34.0227 78.5522 34.7413 78.3095 35.6H87.7735C87.6802 34.6667 87.2322 33.9293 86.4295 33.388C85.6455 32.828 84.5722 32.548 83.2095 32.548ZM94.0941 30.084H97.7341V44H94.0941V30.084ZM104.202 29.776C105.061 29.776 105.854 29.888 106.582 30.112C107.31 30.336 107.945 30.6813 108.486 31.148C109.027 31.6147 109.447 32.212 109.746 32.94C110.045 33.6493 110.194 34.4987 110.194 35.488V44H106.554V36.132C106.554 34.956 106.265 34.0973 105.686 33.556C105.126 32.996 104.202 32.716 102.914 32.716C101.943 32.716 101.066 32.9027 100.282 33.276C99.4981 33.6493 98.8634 34.1253 98.3781 34.704C97.8927 35.264 97.6127 35.852 97.5381 36.468L97.5101 35.04C97.6034 34.3867 97.8181 33.752 98.1541 33.136C98.4901 32.52 98.9381 31.96 99.4981 31.456C100.077 30.9333 100.758 30.5227 101.542 30.224C102.326 29.9253 103.213 29.776 104.202 29.776Z" fill="#052123"/>
</svg>
