<svg width="89" height="54" viewBox="0 0 89 54" fill="none" xmlns="http://www.w3.org/2000/svg">
<path d="M17.352 23.62H16.036L21.132 12.084H25.108L18.416 26H14.972L8.42 12.084H12.424L17.352 23.62ZM31.4067 5.98V9.172H27.1787V5.98H31.4067ZM27.4587 12.084H31.0987V26H27.4587V12.084ZM42.9309 26.336C41.1762 26.336 39.6269 26.056 38.2829 25.496C36.9575 24.936 35.9215 24.124 35.1749 23.06C34.4282 21.9773 34.0549 20.652 34.0549 19.084C34.0549 17.516 34.4282 16.1907 35.1749 15.108C35.9215 14.0067 36.9575 13.176 38.2829 12.616C39.6269 12.056 41.1762 11.776 42.9309 11.776C44.6855 11.776 46.2162 12.056 47.5229 12.616C48.8482 13.176 49.8842 14.0067 50.6309 15.108C51.3775 16.1907 51.7509 17.516 51.7509 19.084C51.7509 20.652 51.3775 21.9773 50.6309 23.06C49.8842 24.124 48.8482 24.936 47.5229 25.496C46.2162 26.056 44.6855 26.336 42.9309 26.336ZM42.9309 23.536C43.9015 23.536 44.7695 23.368 45.5349 23.032C46.3189 22.6773 46.9349 22.1733 47.3829 21.52C47.8309 20.848 48.0549 20.036 48.0549 19.084C48.0549 18.132 47.8309 17.32 47.3829 16.648C46.9349 15.9573 46.3282 15.4347 45.5629 15.08C44.7975 14.7253 43.9202 14.548 42.9309 14.548C41.9602 14.548 41.0829 14.7253 40.2989 15.08C39.5149 15.4347 38.8895 15.948 38.4229 16.62C37.9749 17.292 37.7509 18.1133 37.7509 19.084C37.7509 20.036 37.9749 20.848 38.4229 21.52C38.8709 22.1733 39.4869 22.6773 40.2709 23.032C41.0549 23.368 41.9415 23.536 42.9309 23.536Z" fill="#F6F8FB"/>
<rect x="54.6709" y="18" width="25.3291" height="2" fill="#F6F8FB"/>
<path d="M38.456 46.336C37.0747 46.336 35.8147 46.0373 34.676 45.44C33.556 44.8427 32.66 44.0027 31.988 42.92C31.3347 41.8187 31.008 40.5307 31.008 39.056C31.008 37.6187 31.3347 36.3587 31.988 35.276C32.66 34.1747 33.556 33.316 34.676 32.7C35.8147 32.084 37.0747 31.776 38.456 31.776C39.7067 31.776 40.7707 31.9627 41.648 32.336C42.5253 32.7093 43.2347 33.232 43.776 33.904C44.3173 34.5573 44.7093 35.3227 44.952 36.2C45.2133 37.0773 45.344 38.0293 45.344 39.056C45.344 39.8773 45.2133 40.7173 44.952 41.576C44.6907 42.4347 44.2893 43.228 43.748 43.956C43.2067 44.6653 42.4973 45.244 41.62 45.692C40.7427 46.1213 39.688 46.336 38.456 46.336ZM39.632 43.508C40.7333 43.508 41.6853 43.3213 42.488 42.948C43.2907 42.5747 43.9067 42.0613 44.336 41.408C44.7653 40.736 44.98 39.952 44.98 39.056C44.98 38.104 44.756 37.3013 44.308 36.648C43.8787 35.976 43.2627 35.4627 42.46 35.108C41.676 34.7533 40.7333 34.576 39.632 34.576C38.0827 34.576 36.8787 34.9867 36.02 35.808C35.1613 36.6293 34.732 37.712 34.732 39.056C34.732 39.952 34.9373 40.736 35.348 41.408C35.7587 42.0613 36.328 42.5747 37.056 42.948C37.8027 43.3213 38.6613 43.508 39.632 43.508ZM48.62 32.084V51.6H44.98V35.528L45.092 32.084H48.62ZM68.6433 46H65.0033V32.084H68.6433V46ZM65.1993 39.308L65.2273 40.26C65.1899 40.5213 65.0966 40.904 64.9473 41.408C64.7979 41.8933 64.5646 42.416 64.2473 42.976C63.9486 43.536 63.5566 44.0773 63.0713 44.6C62.5859 45.104 61.9886 45.524 61.2793 45.86C60.5699 46.1773 59.7299 46.336 58.7593 46.336C57.9939 46.336 57.2379 46.2427 56.4913 46.056C55.7633 45.8693 55.1006 45.5613 54.5033 45.132C53.9059 44.684 53.4299 44.0867 53.0753 43.34C52.7206 42.5933 52.5433 41.6507 52.5433 40.512V32.084H56.1833V39.896C56.1833 40.792 56.3233 41.5013 56.6033 42.024C56.9019 42.528 57.3313 42.8827 57.8913 43.088C58.4513 43.2933 59.1139 43.396 59.8793 43.396C60.8873 43.396 61.7553 43.1813 62.4833 42.752C63.2113 42.304 63.7993 41.7627 64.2473 41.128C64.7139 40.4933 65.0313 39.8867 65.1993 39.308ZM84.6413 41.38H88.1693C88.02 42.332 87.6187 43.1813 86.9653 43.928C86.3307 44.6747 85.4627 45.2627 84.3613 45.692C83.26 46.1213 81.916 46.336 80.3293 46.336C78.556 46.336 76.988 46.056 75.6253 45.496C74.2627 44.9173 73.1987 44.0867 72.4333 43.004C71.668 41.9213 71.2853 40.6147 71.2853 39.084C71.2853 37.5533 71.6587 36.2467 72.4053 35.164C73.152 34.0627 74.188 33.2227 75.5133 32.644C76.8573 32.0653 78.4253 31.776 80.2173 31.776C82.0467 31.776 83.568 32.0653 84.7813 32.644C85.9947 33.2227 86.8907 34.1 87.4693 35.276C88.0667 36.4333 88.3187 37.9173 88.2253 39.728H74.9533C75.0467 40.4373 75.308 41.0813 75.7373 41.66C76.1853 42.2387 76.7827 42.696 77.5293 43.032C78.2947 43.368 79.2 43.536 80.2453 43.536C81.4027 43.536 82.364 43.34 83.1293 42.948C83.9133 42.5373 84.4173 42.0147 84.6413 41.38ZM80.0493 34.548C78.7053 34.548 77.6133 34.8467 76.7733 35.444C75.9333 36.0227 75.392 36.7413 75.1493 37.6H84.6133C84.52 36.6667 84.072 35.9293 83.2693 35.388C82.4853 34.828 81.412 34.548 80.0493 34.548Z" fill="#F6F8FB"/>
<rect x="8" y="38" width="19" height="2" fill="#F6F8FB"/>
</svg>
