<svg width="14" height="10" viewBox="0 0 14 10" fill="none" xmlns="http://www.w3.org/2000/svg">
<path d="M12.9428 0.30127H1.43553C1.30836 0.30127 1.18641 0.351785 1.09649 0.441704C1.00657 0.531622 0.956055 0.653577 0.956055 0.780741V8.93176C0.956055 9.18608 1.05709 9.42999 1.23692 9.60983C1.41676 9.78967 1.66067 9.8907 1.915 9.8907H12.4634C12.7177 9.8907 12.9616 9.78967 13.1414 9.60983C13.3213 9.42999 13.4223 9.18608 13.4223 8.93176V0.780741C13.4223 0.653577 13.3718 0.531622 13.2819 0.441704C13.192 0.351785 13.07 0.30127 12.9428 0.30127ZM7.18918 5.40464L2.66837 1.26021H11.71L7.18918 5.40464ZM5.43372 5.09598L1.915 8.32103V1.87094L5.43372 5.09598ZM6.14334 5.74627L6.86254 6.40854C6.951 6.48974 7.06671 6.5348 7.18679 6.5348C7.30686 6.5348 7.42257 6.48974 7.51103 6.40854L8.23024 5.74627L11.7064 8.93176H2.66837L6.14334 5.74627ZM8.94465 5.09598L12.4634 1.87034V8.32163L8.94465 5.09598Z" fill="white"/>
</svg>
