<svg width="16" height="12" viewBox="0 0 16 12" fill="none" xmlns="http://www.w3.org/2000/svg">
<path d="M14.4615 0.8H1.53846C1.3472 0.8 1.16105 0.870416 1.02162 0.999888C0.88169 1.12982 0.8 1.30936 0.8 1.5V10C0.8 10.3232 0.938421 10.63 1.17933 10.8537C1.41975 11.0769 1.74285 11.2 2.07692 11.2H13.9231C14.2572 11.2 14.5803 11.0769 14.8207 10.8537C15.0616 10.63 15.2 10.3232 15.2 10V1.5C15.2 1.30936 15.1183 1.12982 14.9784 0.999888C14.8389 0.870416 14.6528 0.8 14.4615 0.8ZM8 6.05922L3.46647 2.2H12.5335L8 6.05922ZM2.27692 9.8V3.06976L7.50612 7.52096C7.64294 7.63758 7.81931 7.70041 8 7.70041C8.18069 7.70041 8.35706 7.63758 8.49388 7.52096L13.7231 3.06977V9.8H2.27692Z" fill="#1A202C" stroke="#1A202C" stroke-width="0.4"/>
</svg>
