<svg width="87" height="54" viewBox="0 0 87 54" fill="none" xmlns="http://www.w3.org/2000/svg">
<path d="M16.852 23.62H15.536L20.632 12.084H24.608L17.916 26H14.472L7.92 12.084H11.924L16.852 23.62ZM30.9067 5.98V9.172H26.6787V5.98H30.9067ZM26.9587 12.084H30.5987V26H26.9587V12.084ZM42.4309 26.336C40.6762 26.336 39.1269 26.056 37.7829 25.496C36.4575 24.936 35.4215 24.124 34.6749 23.06C33.9282 21.9773 33.5549 20.652 33.5549 19.084C33.5549 17.516 33.9282 16.1907 34.6749 15.108C35.4215 14.0067 36.4575 13.176 37.7829 12.616C39.1269 12.056 40.6762 11.776 42.4309 11.776C44.1855 11.776 45.7162 12.056 47.0229 12.616C48.3482 13.176 49.3842 14.0067 50.1309 15.108C50.8775 16.1907 51.2509 17.516 51.2509 19.084C51.2509 20.652 50.8775 21.9773 50.1309 23.06C49.3842 24.124 48.3482 24.936 47.0229 25.496C45.7162 26.056 44.1855 26.336 42.4309 26.336ZM42.4309 23.536C43.4015 23.536 44.2695 23.368 45.0349 23.032C45.8189 22.6773 46.4349 22.1733 46.8829 21.52C47.3309 20.848 47.5549 20.036 47.5549 19.084C47.5549 18.132 47.3309 17.32 46.8829 16.648C46.4349 15.9573 45.8282 15.4347 45.0629 15.08C44.2975 14.7253 43.4202 14.548 42.4309 14.548C41.4602 14.548 40.5829 14.7253 39.7989 15.08C39.0149 15.4347 38.3895 15.948 37.9229 16.62C37.4749 17.292 37.2509 18.1133 37.2509 19.084C37.2509 20.036 37.4749 20.848 37.9229 21.52C38.3709 22.1733 38.9869 22.6773 39.7709 23.032C40.5549 23.368 41.4415 23.536 42.4309 23.536Z" fill="#171923"/>
<rect x="48.5" y="18" width="31" height="2" fill="#171923"/>
<path d="M32.956 46.336C31.5747 46.336 30.3147 46.0373 29.176 45.44C28.056 44.8427 27.16 44.0027 26.488 42.92C25.8347 41.8187 25.508 40.5307 25.508 39.056C25.508 37.6187 25.8347 36.3587 26.488 35.276C27.16 34.1747 28.056 33.316 29.176 32.7C30.3147 32.084 31.5747 31.776 32.956 31.776C34.2067 31.776 35.2707 31.9627 36.148 32.336C37.0253 32.7093 37.7347 33.232 38.276 33.904C38.8173 34.5573 39.2093 35.3227 39.452 36.2C39.7133 37.0773 39.844 38.0293 39.844 39.056C39.844 39.8773 39.7133 40.7173 39.452 41.576C39.1907 42.4347 38.7893 43.228 38.248 43.956C37.7067 44.6653 36.9973 45.244 36.12 45.692C35.2427 46.1213 34.188 46.336 32.956 46.336ZM34.132 43.508C35.2333 43.508 36.1853 43.3213 36.988 42.948C37.7907 42.5747 38.4067 42.0613 38.836 41.408C39.2653 40.736 39.48 39.952 39.48 39.056C39.48 38.104 39.256 37.3013 38.808 36.648C38.3787 35.976 37.7627 35.4627 36.96 35.108C36.176 34.7533 35.2333 34.576 34.132 34.576C32.5827 34.576 31.3787 34.9867 30.52 35.808C29.6613 36.6293 29.232 37.712 29.232 39.056C29.232 39.952 29.4373 40.736 29.848 41.408C30.2587 42.0613 30.828 42.5747 31.556 42.948C32.3027 43.3213 33.1613 43.508 34.132 43.508ZM43.12 32.084V51.6H39.48V35.528L39.592 32.084H43.12ZM63.1433 46H59.5033V32.084H63.1433V46ZM59.6993 39.308L59.7273 40.26C59.6899 40.5213 59.5966 40.904 59.4473 41.408C59.2979 41.8933 59.0646 42.416 58.7473 42.976C58.4486 43.536 58.0566 44.0773 57.5713 44.6C57.0859 45.104 56.4886 45.524 55.7793 45.86C55.0699 46.1773 54.2299 46.336 53.2593 46.336C52.4939 46.336 51.7379 46.2427 50.9913 46.056C50.2633 45.8693 49.6006 45.5613 49.0033 45.132C48.4059 44.684 47.9299 44.0867 47.5753 43.34C47.2206 42.5933 47.0433 41.6507 47.0433 40.512V32.084H50.6833V39.896C50.6833 40.792 50.8233 41.5013 51.1033 42.024C51.4019 42.528 51.8313 42.8827 52.3913 43.088C52.9513 43.2933 53.6139 43.396 54.3793 43.396C55.3873 43.396 56.2553 43.1813 56.9833 42.752C57.7113 42.304 58.2993 41.7627 58.7473 41.128C59.2139 40.4933 59.5313 39.8867 59.6993 39.308ZM79.1413 41.38H82.6693C82.52 42.332 82.1187 43.1813 81.4653 43.928C80.8307 44.6747 79.9627 45.2627 78.8613 45.692C77.76 46.1213 76.416 46.336 74.8293 46.336C73.056 46.336 71.488 46.056 70.1253 45.496C68.7627 44.9173 67.6987 44.0867 66.9333 43.004C66.168 41.9213 65.7853 40.6147 65.7853 39.084C65.7853 37.5533 66.1587 36.2467 66.9053 35.164C67.652 34.0627 68.688 33.2227 70.0133 32.644C71.3573 32.0653 72.9253 31.776 74.7173 31.776C76.5467 31.776 78.068 32.0653 79.2813 32.644C80.4947 33.2227 81.3907 34.1 81.9693 35.276C82.5667 36.4333 82.8187 37.9173 82.7253 39.728H69.4533C69.5467 40.4373 69.808 41.0813 70.2373 41.66C70.6853 42.2387 71.2827 42.696 72.0293 43.032C72.7947 43.368 73.7 43.536 74.7453 43.536C75.9027 43.536 76.864 43.34 77.6293 42.948C78.4133 42.5373 78.9173 42.0147 79.1413 41.38ZM74.5493 34.548C73.2053 34.548 72.1133 34.8467 71.2733 35.444C70.4333 36.0227 69.892 36.7413 69.6493 37.6H79.1133C79.02 36.6667 78.572 35.9293 77.7693 35.388C76.9853 34.828 75.912 34.548 74.5493 34.548Z" fill="#171923"/>
<path d="M2.5 38H22.5V39V40H2.5V38Z" fill="#171923"/>
</svg>
