<svg width="16" height="16" viewBox="0 0 16 16" fill="none" xmlns="http://www.w3.org/2000/svg">
<path d="M15.0155 14.5536C15.0859 14.624 15.1254 14.7194 15.1254 14.8189C15.1254 14.9184 15.0859 15.0139 15.0155 15.0842C14.9452 15.1546 14.8497 15.1941 14.7502 15.1941C14.6507 15.1941 14.5553 15.1546 14.4849 15.0842L8.00021 8.59956L1.51552 15.0842C1.44516 15.1546 1.34972 15.1941 1.25021 15.1941C1.1507 15.1941 1.05526 15.1546 0.984896 15.0842C0.914531 15.0139 0.875 14.9184 0.875 14.8189C0.875 14.7194 0.914531 14.624 0.984896 14.5536L7.46958 8.06893L0.984896 1.58425C0.914531 1.51388 0.875 1.41845 0.875 1.31893C0.875 1.21942 0.914531 1.12399 0.984896 1.05362C1.05526 0.983256 1.1507 0.943726 1.25021 0.943726C1.34972 0.943726 1.44516 0.983256 1.51552 1.05362L8.00021 7.53831L14.4849 1.05362C14.5197 1.01878 14.5611 0.991142 14.6066 0.972286C14.6521 0.95343 14.7009 0.943726 14.7502 0.943726C14.7995 0.943726 14.8483 0.95343 14.8938 0.972286C14.9393 0.991142 14.9807 1.01878 15.0155 1.05362C15.0504 1.08846 15.078 1.12983 15.0969 1.17535C15.1157 1.22087 15.1254 1.26966 15.1254 1.31893C15.1254 1.36821 15.1157 1.417 15.0969 1.46252C15.078 1.50804 15.0504 1.54941 15.0155 1.58425L8.53083 8.06893L15.0155 14.5536Z" fill="#171923"/>
</svg>
