<svg width="293" height="172" viewBox="0 0 293 172" fill="none" xmlns="http://www.w3.org/2000/svg">
<ellipse cx="235" cy="44.2" rx="44.4" ry="44.2" fill="#EFC26B"/>
<path d="M187.176 120.592C185.384 120.592 183.837 120.336 182.536 119.824C181.256 119.312 180.264 118.576 179.56 117.616C178.877 116.635 178.536 115.483 178.536 114.16C178.536 112.88 178.867 111.792 179.528 110.896C180.211 109.979 181.192 109.275 182.472 108.784C183.773 108.293 185.341 108.048 187.176 108.048C188.989 108.048 190.547 108.293 191.848 108.784C193.149 109.275 194.141 109.979 194.824 110.896C195.528 111.792 195.88 112.88 195.88 114.16C195.88 115.483 195.528 116.635 194.824 117.616C194.12 118.576 193.117 119.312 191.816 119.824C190.515 120.336 188.968 120.592 187.176 120.592ZM187.176 118.64C189.16 118.64 190.707 118.235 191.816 117.424C192.947 116.613 193.512 115.515 193.512 114.128C193.512 112.741 192.947 111.653 191.816 110.864C190.707 110.053 189.16 109.648 187.176 109.648C185.192 109.648 183.645 110.053 182.536 110.864C181.427 111.653 180.872 112.741 180.872 114.128C180.872 115.515 181.427 116.613 182.536 117.424C183.645 118.235 185.192 118.64 187.176 118.64ZM187.176 109.36C185.512 109.36 184.093 109.136 182.92 108.688C181.768 108.24 180.883 107.6 180.264 106.768C179.645 105.915 179.336 104.901 179.336 103.728C179.336 102.491 179.656 101.435 180.296 100.56C180.957 99.6639 181.875 98.9812 183.048 98.5119C184.221 98.0426 185.597 97.8079 187.176 97.8079C188.755 97.8079 190.131 98.0426 191.304 98.5119C192.499 98.9812 193.427 99.6639 194.088 100.56C194.749 101.435 195.08 102.491 195.08 103.728C195.08 104.901 194.771 105.915 194.152 106.768C193.533 107.6 192.627 108.24 191.432 108.688C190.259 109.136 188.84 109.36 187.176 109.36ZM187.176 107.824C188.925 107.824 190.291 107.461 191.272 106.736C192.253 106.011 192.744 105.04 192.744 103.824C192.744 102.544 192.232 101.552 191.208 100.848C190.205 100.123 188.861 99.7599 187.176 99.7599C185.491 99.7599 184.147 100.123 183.144 100.848C182.141 101.552 181.64 102.533 181.64 103.792C181.64 105.029 182.12 106.011 183.08 106.736C184.061 107.461 185.427 107.824 187.176 107.824ZM207.582 120.592C205.79 120.592 204.244 120.336 202.942 119.824C201.662 119.312 200.67 118.576 199.966 117.616C199.284 116.635 198.942 115.483 198.942 114.16C198.942 112.88 199.273 111.792 199.934 110.896C200.617 109.979 201.598 109.275 202.878 108.784C204.18 108.293 205.748 108.048 207.582 108.048C209.396 108.048 210.953 108.293 212.254 108.784C213.556 109.275 214.548 109.979 215.23 110.896C215.934 111.792 216.286 112.88 216.286 114.16C216.286 115.483 215.934 116.635 215.23 117.616C214.526 118.576 213.524 119.312 212.222 119.824C210.921 120.336 209.374 120.592 207.582 120.592ZM207.582 118.64C209.566 118.64 211.113 118.235 212.222 117.424C213.353 116.613 213.918 115.515 213.918 114.128C213.918 112.741 213.353 111.653 212.222 110.864C211.113 110.053 209.566 109.648 207.582 109.648C205.598 109.648 204.052 110.053 202.942 110.864C201.833 111.653 201.278 112.741 201.278 114.128C201.278 115.515 201.833 116.613 202.942 117.424C204.052 118.235 205.598 118.64 207.582 118.64ZM207.582 109.36C205.918 109.36 204.5 109.136 203.326 108.688C202.174 108.24 201.289 107.6 200.67 106.768C200.052 105.915 199.742 104.901 199.742 103.728C199.742 102.491 200.062 101.435 200.702 100.56C201.364 99.6639 202.281 98.9812 203.454 98.5119C204.628 98.0426 206.004 97.8079 207.582 97.8079C209.161 97.8079 210.537 98.0426 211.71 98.5119C212.905 98.9812 213.833 99.6639 214.494 100.56C215.156 101.435 215.486 102.491 215.486 103.728C215.486 104.901 215.177 105.915 214.558 106.768C213.94 107.6 213.033 108.24 211.838 108.688C210.665 109.136 209.246 109.36 207.582 109.36ZM207.582 107.824C209.332 107.824 210.697 107.461 211.678 106.736C212.66 106.011 213.15 105.04 213.15 103.824C213.15 102.544 212.638 101.552 211.614 100.848C210.612 100.123 209.268 99.7599 207.582 99.7599C205.897 99.7599 204.553 100.123 203.55 100.848C202.548 101.552 202.046 102.533 202.046 103.792C202.046 105.029 202.526 106.011 203.486 106.736C204.468 107.461 205.833 107.824 207.582 107.824ZM221.517 120.56C221.048 120.56 220.642 120.389 220.301 120.048C219.981 119.707 219.821 119.291 219.821 118.8C219.821 118.288 219.981 117.872 220.301 117.552C220.642 117.232 221.048 117.072 221.517 117.072C221.986 117.072 222.381 117.232 222.701 117.552C223.042 117.872 223.213 118.288 223.213 118.8C223.213 119.291 223.042 119.707 222.701 120.048C222.381 120.389 221.986 120.56 221.517 120.56ZM225.811 114.512V112.848L237.683 97.9999H240.243L228.467 112.848L227.219 112.464H245.235V114.512H225.811ZM238.451 120.4V114.512L238.515 112.464V107.28H240.755V120.4H238.451ZM258.735 120.4L274.031 97.9999H275.919L260.623 120.4H258.735ZM260.463 110C259.46 110 258.575 109.755 257.807 109.264C257.039 108.752 256.441 108.037 256.015 107.12C255.609 106.203 255.407 105.136 255.407 103.92C255.407 102.704 255.609 101.637 256.015 100.72C256.441 99.8026 257.039 99.0986 257.807 98.6079C258.575 98.0959 259.46 97.8399 260.463 97.8399C261.465 97.8399 262.34 98.0959 263.087 98.6079C263.855 99.0986 264.452 99.8026 264.879 100.72C265.305 101.637 265.519 102.704 265.519 103.92C265.519 105.136 265.305 106.203 264.879 107.12C264.452 108.037 263.855 108.752 263.087 109.264C262.34 109.755 261.465 110 260.463 110ZM260.463 108.56C261.508 108.56 262.34 108.155 262.959 107.344C263.599 106.512 263.919 105.371 263.919 103.92C263.919 102.469 263.599 101.339 262.959 100.528C262.34 99.6959 261.508 99.2799 260.463 99.2799C259.396 99.2799 258.553 99.6959 257.935 100.528C257.316 101.339 257.007 102.469 257.007 103.92C257.007 105.371 257.316 106.512 257.935 107.344C258.553 108.155 259.396 108.56 260.463 108.56ZM274.191 120.56C273.209 120.56 272.335 120.315 271.567 119.824C270.799 119.312 270.201 118.597 269.775 117.68C269.348 116.763 269.135 115.696 269.135 114.48C269.135 113.264 269.348 112.197 269.775 111.28C270.201 110.363 270.799 109.659 271.567 109.168C272.335 108.656 273.209 108.4 274.191 108.4C275.215 108.4 276.1 108.656 276.847 109.168C277.615 109.659 278.201 110.363 278.607 111.28C279.033 112.197 279.247 113.264 279.247 114.48C279.247 115.696 279.033 116.763 278.607 117.68C278.201 118.597 277.615 119.312 276.847 119.824C276.1 120.315 275.215 120.56 274.191 120.56ZM274.191 119.12C275.236 119.12 276.068 118.715 276.687 117.904C277.327 117.072 277.647 115.931 277.647 114.48C277.647 113.029 277.327 111.899 276.687 111.088C276.068 110.256 275.236 109.84 274.191 109.84C273.145 109.84 272.303 110.256 271.663 111.088C271.044 111.899 270.735 113.029 270.735 114.48C270.735 115.931 271.044 117.072 271.663 117.904C272.303 118.715 273.145 119.12 274.191 119.12ZM285.743 120.56C284.761 120.56 283.887 120.315 283.119 119.824C282.351 119.312 281.753 118.608 281.327 117.712C280.9 116.795 280.687 115.717 280.687 114.48C280.687 113.243 280.9 112.176 281.327 111.28C281.753 110.363 282.351 109.659 283.119 109.168C283.887 108.656 284.761 108.4 285.743 108.4C286.767 108.4 287.652 108.656 288.399 109.168C289.167 109.659 289.753 110.363 290.159 111.28C290.585 112.197 290.799 113.264 290.799 114.48C290.799 115.696 290.585 116.763 290.159 117.68C289.753 118.597 289.167 119.312 288.399 119.824C287.652 120.315 286.767 120.56 285.743 120.56ZM285.743 119.12C286.788 119.12 287.62 118.715 288.239 117.904C288.879 117.072 289.199 115.931 289.199 114.48C289.199 113.029 288.879 111.899 288.239 111.088C287.62 110.256 286.788 109.84 285.743 109.84C284.697 109.84 283.855 110.256 283.215 111.088C282.596 111.899 282.287 113.029 282.287 114.48C282.287 115.931 282.596 117.072 283.215 117.904C283.855 118.715 284.697 119.12 285.743 119.12Z" fill="#263852"/>
<path opacity="0.8" d="M200.18 166L196.162 155.348H197.542L201.194 165.229H200.565L204.319 155.348H205.557L209.27 165.229H208.641L212.354 155.348H213.673L209.635 166H208.275L204.704 156.707H205.13L201.539 166H200.18ZM219.886 166.101C218.858 166.101 217.932 165.871 217.107 165.412C216.295 164.938 215.653 164.296 215.179 163.484C214.706 162.659 214.469 161.719 214.469 160.664C214.469 159.595 214.706 158.655 215.179 157.843C215.653 157.032 216.295 156.396 217.107 155.936C217.918 155.476 218.845 155.246 219.886 155.246C220.942 155.246 221.875 155.476 222.686 155.936C223.512 156.396 224.154 157.032 224.614 157.843C225.087 158.655 225.324 159.595 225.324 160.664C225.324 161.719 225.087 162.659 224.614 163.484C224.154 164.296 223.512 164.938 222.686 165.412C221.861 165.871 220.928 166.101 219.886 166.101ZM219.886 164.823C220.657 164.823 221.341 164.654 221.936 164.316C222.531 163.964 222.998 163.477 223.336 162.855C223.687 162.219 223.863 161.489 223.863 160.664C223.863 159.825 223.687 159.095 223.336 158.472C222.998 157.85 222.531 157.37 221.936 157.032C221.341 156.68 220.664 156.504 219.907 156.504C219.149 156.504 218.473 156.68 217.878 157.032C217.283 157.37 216.809 157.85 216.457 158.472C216.106 159.095 215.93 159.825 215.93 160.664C215.93 161.489 216.106 162.219 216.457 162.855C216.809 163.477 217.283 163.964 217.878 164.316C218.473 164.654 219.142 164.823 219.886 164.823ZM241.575 155.246C242.441 155.246 243.192 155.415 243.828 155.754C244.477 156.078 244.977 156.579 245.329 157.255C245.694 157.931 245.877 158.784 245.877 159.812V166H244.436V159.954C244.436 158.831 244.166 157.985 243.625 157.417C243.097 156.836 242.346 156.545 241.372 156.545C240.642 156.545 240.006 156.7 239.465 157.012C238.938 157.309 238.525 157.749 238.228 158.33C237.944 158.899 237.801 159.588 237.801 160.4V166H236.361V159.954C236.361 158.831 236.09 157.985 235.549 157.417C235.008 156.836 234.251 156.545 233.277 156.545C232.56 156.545 231.931 156.7 231.39 157.012C230.849 157.309 230.429 157.749 230.132 158.33C229.848 158.899 229.706 159.588 229.706 160.4V166H228.265V155.348H229.645V158.229L229.422 157.722C229.746 156.951 230.267 156.349 230.984 155.916C231.715 155.47 232.573 155.246 233.561 155.246C234.602 155.246 235.488 155.51 236.219 156.038C236.949 156.552 237.423 157.329 237.639 158.371L237.071 158.148C237.382 157.282 237.93 156.585 238.715 156.058C239.513 155.517 240.466 155.246 241.575 155.246ZM254.308 166.101C253.199 166.101 252.225 165.871 251.387 165.412C250.548 164.938 249.892 164.296 249.418 163.484C248.945 162.659 248.708 161.719 248.708 160.664C248.708 159.609 248.931 158.675 249.378 157.864C249.838 157.052 250.46 156.416 251.244 155.956C252.043 155.483 252.935 155.246 253.923 155.246C254.924 155.246 255.81 155.476 256.581 155.936C257.365 156.383 257.981 157.018 258.427 157.843C258.873 158.655 259.097 159.595 259.097 160.664C259.097 160.731 259.09 160.806 259.076 160.887C259.076 160.955 259.076 161.029 259.076 161.11H249.804V160.035H258.305L257.737 160.461C257.737 159.69 257.568 159.007 257.23 158.412C256.905 157.803 256.459 157.329 255.891 156.991C255.323 156.653 254.667 156.484 253.923 156.484C253.192 156.484 252.536 156.653 251.955 156.991C251.373 157.329 250.92 157.803 250.595 158.412C250.271 159.02 250.108 159.717 250.108 160.501V160.725C250.108 161.536 250.284 162.253 250.636 162.875C251.001 163.484 251.501 163.964 252.137 164.316C252.787 164.654 253.524 164.823 254.349 164.823C254.998 164.823 255.6 164.708 256.155 164.478C256.723 164.248 257.21 163.897 257.616 163.423L258.427 164.357C257.954 164.925 257.359 165.357 256.642 165.655C255.938 165.953 255.16 166.101 254.308 166.101ZM267.467 155.246C268.332 155.246 269.09 155.415 269.739 155.754C270.402 156.078 270.916 156.579 271.281 157.255C271.66 157.931 271.849 158.784 271.849 159.812V166H270.409V159.954C270.409 158.831 270.125 157.985 269.556 157.417C269.002 156.836 268.217 156.545 267.203 156.545C266.445 156.545 265.783 156.7 265.214 157.012C264.66 157.309 264.227 157.749 263.916 158.33C263.618 158.899 263.469 159.588 263.469 160.4V166H262.029V155.348H263.409V158.27L263.185 157.722C263.524 156.951 264.065 156.349 264.809 155.916C265.553 155.47 266.439 155.246 267.467 155.246Z" fill="#263852"/>
<circle cx="55.5004" cy="64.6" r="22.6" fill="#6B9EEF"/>
<path d="M1.28 114.312V112.648L13.152 97.8002H15.712L3.936 112.648L2.688 112.264H20.704V114.312H1.28ZM13.92 120.2V114.312L13.984 112.264V107.08H16.224V120.2H13.92ZM29.8298 120.392C28.2298 120.392 26.7044 120.136 25.2538 119.624C23.8031 119.091 22.6511 118.387 21.7978 117.512L22.9178 115.688C23.6218 116.435 24.5818 117.054 25.7977 117.544C27.0351 118.035 28.3684 118.28 29.7978 118.28C31.6964 118.28 33.1364 117.864 34.1178 117.032C35.1204 116.179 35.6218 115.07 35.6218 113.704C35.6218 112.744 35.3871 111.923 34.9178 111.24C34.4698 110.536 33.7018 109.992 32.6138 109.608C31.5258 109.224 30.0324 109.032 28.1338 109.032H23.3658L24.5178 97.8002H36.7738V99.8482H25.4458L26.6298 98.7282L25.6378 108.136L24.4538 106.984H28.6458C30.9071 106.984 32.7204 107.262 34.0858 107.816C35.4511 108.371 36.4324 109.15 37.0298 110.152C37.6484 111.134 37.9578 112.286 37.9578 113.608C37.9578 114.867 37.6591 116.019 37.0618 117.064C36.4644 118.088 35.5684 118.899 34.3738 119.496C33.1791 120.094 31.6644 120.392 29.8298 120.392ZM42.6108 120.36C42.1414 120.36 41.7361 120.19 41.3948 119.848C41.0748 119.507 40.9148 119.091 40.9148 118.6C40.9148 118.088 41.0748 117.672 41.3948 117.352C41.7361 117.032 42.1414 116.872 42.6108 116.872C43.0801 116.872 43.4748 117.032 43.7948 117.352C44.1361 117.672 44.3068 118.088 44.3068 118.6C44.3068 119.091 44.1361 119.507 43.7948 119.848C43.4748 120.19 43.0801 120.36 42.6108 120.36ZM47.5605 120.2V118.568L56.8725 109.448C57.7258 108.616 58.3658 107.891 58.7925 107.272C59.2192 106.632 59.5072 106.035 59.6565 105.48C59.8058 104.926 59.8805 104.403 59.8805 103.912C59.8805 102.611 59.4325 101.587 58.5365 100.84C57.6618 100.094 56.3605 99.7202 54.6325 99.7202C53.3098 99.7202 52.1365 99.9229 51.1125 100.328C50.1098 100.734 49.2458 101.363 48.5205 102.216L46.8885 100.808C47.7632 99.7842 48.8832 98.9949 50.2485 98.4402C51.6138 97.8855 53.1392 97.6082 54.8245 97.6082C56.3392 97.6082 57.6512 97.8535 58.7605 98.3442C59.8698 98.8135 60.7232 99.5069 61.3205 100.424C61.9392 101.342 62.2485 102.419 62.2485 103.656C62.2485 104.382 62.1418 105.096 61.9285 105.8C61.7365 106.504 61.3738 107.251 60.8405 108.04C60.3285 108.808 59.5712 109.683 58.5685 110.664L50.0245 119.048L49.3845 118.152H63.2725V120.2H47.5605ZM77.547 120.2L92.843 97.8002H94.731L79.435 120.2H77.547ZM79.275 109.8C78.2723 109.8 77.387 109.555 76.619 109.064C75.851 108.552 75.2537 107.838 74.827 106.92C74.4217 106.003 74.219 104.936 74.219 103.72C74.219 102.504 74.4217 101.438 74.827 100.52C75.2537 99.6029 75.851 98.8989 76.619 98.4082C77.387 97.8962 78.2723 97.6402 79.275 97.6402C80.2777 97.6402 81.1523 97.8962 81.899 98.4082C82.667 98.8989 83.2643 99.6029 83.691 100.52C84.1177 101.438 84.331 102.504 84.331 103.72C84.331 104.936 84.1177 106.003 83.691 106.92C83.2643 107.838 82.667 108.552 81.899 109.064C81.1523 109.555 80.2777 109.8 79.275 109.8ZM79.275 108.36C80.3203 108.36 81.1523 107.955 81.771 107.144C82.411 106.312 82.731 105.171 82.731 103.72C82.731 102.27 82.411 101.139 81.771 100.328C81.1523 99.4962 80.3203 99.0802 79.275 99.0802C78.2083 99.0802 77.3657 99.4962 76.747 100.328C76.1283 101.139 75.819 102.27 75.819 103.72C75.819 105.171 76.1283 106.312 76.747 107.144C77.3657 107.955 78.2083 108.36 79.275 108.36ZM93.003 120.36C92.0217 120.36 91.147 120.115 90.379 119.624C89.611 119.112 89.0137 118.398 88.587 117.48C88.1603 116.563 87.947 115.496 87.947 114.28C87.947 113.064 88.1603 111.998 88.587 111.08C89.0137 110.163 89.611 109.459 90.379 108.968C91.147 108.456 92.0217 108.2 93.003 108.2C94.027 108.2 94.9123 108.456 95.659 108.968C96.427 109.459 97.0137 110.163 97.419 111.08C97.8457 111.998 98.059 113.064 98.059 114.28C98.059 115.496 97.8457 116.563 97.419 117.48C97.0137 118.398 96.427 119.112 95.659 119.624C94.9123 120.115 94.027 120.36 93.003 120.36ZM93.003 118.92C94.0483 118.92 94.8803 118.515 95.499 117.704C96.139 116.872 96.459 115.731 96.459 114.28C96.459 112.83 96.139 111.699 95.499 110.888C94.8803 110.056 94.0483 109.64 93.003 109.64C91.9577 109.64 91.115 110.056 90.475 110.888C89.8563 111.699 89.547 112.83 89.547 114.28C89.547 115.731 89.8563 116.872 90.475 117.704C91.115 118.515 91.9577 118.92 93.003 118.92ZM104.555 120.36C103.574 120.36 102.699 120.115 101.931 119.624C101.163 119.112 100.566 118.408 100.139 117.512C99.7123 116.595 99.499 115.518 99.499 114.28C99.499 113.043 99.7123 111.976 100.139 111.08C100.566 110.163 101.163 109.459 101.931 108.968C102.699 108.456 103.574 108.2 104.555 108.2C105.579 108.2 106.464 108.456 107.211 108.968C107.979 109.459 108.566 110.163 108.971 111.08C109.398 111.998 109.611 113.064 109.611 114.28C109.611 115.496 109.398 116.563 108.971 117.48C108.566 118.398 107.979 119.112 107.211 119.624C106.464 120.115 105.579 120.36 104.555 120.36ZM104.555 118.92C105.6 118.92 106.432 118.515 107.051 117.704C107.691 116.872 108.011 115.731 108.011 114.28C108.011 112.83 107.691 111.699 107.051 110.888C106.432 110.056 105.6 109.64 104.555 109.64C103.51 109.64 102.667 110.056 102.027 110.888C101.408 111.699 101.099 112.83 101.099 114.28C101.099 115.731 101.408 116.872 102.027 117.704C102.667 118.515 103.51 118.92 104.555 118.92Z" fill="#263852"/>
<path opacity="0.8" d="M47.3189 155.246C48.1846 155.246 48.9353 155.415 49.5711 155.754C50.2203 156.078 50.7208 156.579 51.0725 157.255C51.4377 157.931 51.6203 158.784 51.6203 159.812V166H50.1798V159.954C50.1798 158.831 49.9092 157.985 49.3682 157.417C48.8406 156.836 48.0899 156.545 47.116 156.545C46.3855 156.545 45.7498 156.7 45.2087 157.012C44.6812 157.309 44.2686 157.749 43.971 158.33C43.687 158.899 43.545 159.588 43.545 160.4V166H42.1044V159.954C42.1044 158.831 41.8338 157.985 41.2928 157.417C40.7517 156.836 39.9942 156.545 39.0203 156.545C38.3034 156.545 37.6744 156.7 37.1333 157.012C36.5923 157.309 36.173 157.749 35.8754 158.33C35.5913 158.899 35.4493 159.588 35.4493 160.4V166H34.0087V155.348H35.3884V158.229L35.1652 157.722C35.4899 156.951 36.0106 156.349 36.7275 155.916C37.458 155.47 38.3169 155.246 39.3044 155.246C40.3459 155.246 41.2319 155.51 41.9623 156.038C42.6928 156.552 43.1662 157.329 43.3826 158.371L42.8145 158.148C43.1256 157.282 43.6735 156.585 44.458 156.058C45.2561 155.517 46.2097 155.246 47.3189 155.246ZM60.0517 166.101C58.9426 166.101 57.9686 165.871 57.13 165.412C56.2913 164.938 55.6353 164.296 55.1619 163.484C54.6884 162.659 54.4517 161.719 54.4517 160.664C54.4517 159.609 54.6749 158.675 55.1213 157.864C55.5812 157.052 56.2034 156.416 56.988 155.956C57.786 155.483 58.6788 155.246 59.6662 155.246C60.6672 155.246 61.5532 155.476 62.3242 155.936C63.1088 156.383 63.7242 157.018 64.1706 157.843C64.617 158.655 64.8402 159.595 64.8402 160.664C64.8402 160.731 64.8334 160.806 64.8199 160.887C64.8199 160.955 64.8199 161.029 64.8199 161.11H55.5474V160.035H64.0488L63.4807 160.461C63.4807 159.69 63.3116 159.007 62.9735 158.412C62.6488 157.803 62.2025 157.329 61.6344 156.991C61.0662 156.653 60.4102 156.484 59.6662 156.484C58.9358 156.484 58.2798 156.653 57.6981 156.991C57.1165 157.329 56.6633 157.803 56.3387 158.412C56.014 159.02 55.8517 159.717 55.8517 160.501V160.725C55.8517 161.536 56.0276 162.253 56.3793 162.875C56.7445 163.484 57.245 163.964 57.8807 164.316C58.53 164.654 59.2672 164.823 60.0923 164.823C60.7416 164.823 61.3435 164.708 61.8981 164.478C62.4662 164.248 62.9532 163.897 63.359 163.423L64.1706 164.357C63.6972 164.925 63.102 165.357 62.3851 165.655C61.6817 165.953 60.9039 166.101 60.0517 166.101ZM73.2101 155.246C74.0758 155.246 74.8333 155.415 75.4825 155.754C76.1453 156.078 76.6593 156.579 77.0246 157.255C77.4033 157.931 77.5927 158.784 77.5927 159.812V166H76.1521V159.954C76.1521 158.831 75.868 157.985 75.2999 157.417C74.7453 156.836 73.9608 156.545 72.9463 156.545C72.1888 156.545 71.526 156.7 70.9579 157.012C70.4033 157.309 69.9704 157.749 69.6593 158.33C69.3617 158.899 69.2129 159.588 69.2129 160.4V166H67.7724V155.348H69.1521V158.27L68.9289 157.722C69.2671 156.951 69.8081 156.349 70.5521 155.916C71.296 155.47 72.182 155.246 73.2101 155.246Z" fill="#263852"/>
</svg>
