<svg width="24" height="25" viewBox="0 0 24 25" fill="none" xmlns="http://www.w3.org/2000/svg">
<path d="M20.625 12.069C20.625 12.1684 20.5855 12.2638 20.5152 12.3341C20.4448 12.4045 20.3495 12.444 20.25 12.444H3.75C3.65054 12.444 3.55516 12.4045 3.48484 12.3341C3.41451 12.2638 3.375 12.1684 3.375 12.069C3.375 11.9695 3.41451 11.8741 3.48484 11.8038C3.55516 11.7335 3.65054 11.694 3.75 11.694H20.25C20.3495 11.694 20.4448 11.7335 20.5152 11.8038C20.5855 11.8741 20.625 11.9695 20.625 12.069ZM3.75 6.44397H20.25C20.3495 6.44397 20.4448 6.40446 20.5152 6.33414C20.5855 6.26381 20.625 6.16843 20.625 6.06897C20.625 5.96951 20.5855 5.87413 20.5152 5.8038C20.4448 5.73348 20.3495 5.69397 20.25 5.69397H3.75C3.65054 5.69397 3.55516 5.73348 3.48484 5.8038C3.41451 5.87413 3.375 5.96951 3.375 6.06897C3.375 6.16843 3.41451 6.26381 3.48484 6.33414C3.55516 6.40446 3.65054 6.44397 3.75 6.44397ZM20.25 17.694H3.75C3.65054 17.694 3.55516 17.7335 3.48484 17.8038C3.41451 17.8741 3.375 17.9695 3.375 18.069C3.375 18.1684 3.41451 18.2638 3.48484 18.3341C3.55516 18.4045 3.65054 18.444 3.75 18.444H20.25C20.3495 18.444 20.4448 18.4045 20.5152 18.3341C20.5855 18.2638 20.625 18.1684 20.625 18.069C20.625 17.9695 20.5855 17.8741 20.5152 17.8038C20.4448 17.7335 20.3495 17.694 20.25 17.694Z" fill="#171923"/>
</svg>
