<svg width="63" height="63" viewBox="0 0 63 63" fill="none" xmlns="http://www.w3.org/2000/svg">
<g id="NumberCircleOne">
<path id="Vector" d="M31.141 5.83899C26.1367 5.83899 21.2448 7.32293 17.0839 10.1032C12.923 12.8834 9.67995 16.8351 7.76489 21.4584C5.84983 26.0818 5.34876 31.1692 6.32505 36.0774C7.30134 40.9855 9.71114 45.4939 13.2497 49.0325C16.7883 52.571 21.2967 54.9808 26.2048 55.9571C31.113 56.9334 36.2004 56.4323 40.8237 54.5173C45.4471 52.6022 49.3988 49.3592 52.179 45.1983C54.9592 41.0373 56.4432 36.1454 56.4432 31.1411C56.4361 24.4328 53.7681 18.0012 49.0245 13.2576C44.281 8.5141 37.8494 5.84607 31.141 5.83899ZM31.141 52.5507C26.9066 52.5507 22.7673 51.295 19.2465 48.9425C15.7258 46.59 12.9817 43.2463 11.3612 39.3342C9.74078 35.4221 9.3168 31.1174 10.1429 26.9644C10.969 22.8113 13.008 18.9965 16.0022 16.0023C18.9964 13.0082 22.8112 10.9691 26.9642 10.143C31.1173 9.31692 35.422 9.7409 39.3341 11.3613C43.2462 12.9818 46.5899 15.7259 48.9424 19.2467C51.2949 22.7674 52.5505 26.9067 52.5505 31.1411C52.5441 36.8173 50.2864 42.2592 46.2727 46.2728C42.2591 50.2865 36.8172 52.5442 31.141 52.5507ZM34.0605 19.4632V42.8191C34.0605 43.3353 33.8555 43.8303 33.4904 44.1953C33.1254 44.5603 32.6304 44.7654 32.1142 44.7654C31.598 44.7654 31.1029 44.5603 30.7379 44.1953C30.3729 43.8303 30.1679 43.3353 30.1679 42.8191V23.1126L27.3554 24.9883C27.1427 25.1302 26.904 25.2288 26.6531 25.2784C26.4023 25.328 26.1441 25.3277 25.8933 25.2776C25.6426 25.2274 25.4041 25.1284 25.1916 24.9861C24.9792 24.8438 24.7968 24.661 24.6549 24.4482C24.5131 24.2355 24.4145 23.9968 24.3649 23.7459C24.3153 23.4951 24.3155 23.2369 24.3657 22.9861C24.4158 22.7354 24.5149 22.4969 24.6572 22.2844C24.7995 22.072 24.9822 21.8896 25.195 21.7477L31.034 17.8551C31.3263 17.66 31.666 17.5478 32.017 17.5302C32.368 17.5127 32.7171 17.5905 33.0275 17.7554C33.3378 17.9202 33.5977 18.1661 33.7796 18.4668C33.9615 18.7675 34.0585 19.1118 34.0605 19.4632Z" fill="#11639F"/>
</g>
</svg>
