<svg width="63" height="63" viewBox="0 0 63 63" fill="none" xmlns="http://www.w3.org/2000/svg">
<g id="NumberCircleThree">
<path id="Vector" d="M31.141 5.83899C26.1367 5.83899 21.2448 7.32293 17.0839 10.1032C12.923 12.8834 9.67995 16.8351 7.76489 21.4584C5.84983 26.0818 5.34876 31.1692 6.32505 36.0774C7.30134 40.9855 9.71114 45.4939 13.2497 49.0325C16.7883 52.571 21.2967 54.9808 26.2048 55.9571C31.113 56.9334 36.2004 56.4323 40.8237 54.5173C45.4471 52.6022 49.3988 49.3592 52.179 45.1983C54.9592 41.0373 56.4432 36.1454 56.4432 31.1411C56.4361 24.4328 53.7681 18.0012 49.0245 13.2576C44.281 8.5141 37.8494 5.84607 31.141 5.83899ZM31.141 52.5507C26.9066 52.5507 22.7673 51.295 19.2465 48.9425C15.7258 46.59 12.9817 43.2463 11.3612 39.3342C9.74078 35.4221 9.3168 31.1174 10.1429 26.9644C10.969 22.8113 13.008 18.9965 16.0022 16.0023C18.9964 13.0082 22.8112 10.9691 26.9642 10.143C31.1173 9.31692 35.422 9.7409 39.3341 11.3613C43.2462 12.9818 46.5899 15.7259 48.9424 19.2467C51.2949 22.7674 52.5505 26.9067 52.5505 31.1411C52.5441 36.8173 50.2864 42.2592 46.2727 46.2728C42.2591 50.2865 36.8172 52.5442 31.141 52.5507ZM38.9263 36.9801C38.9259 38.7197 38.4074 40.4197 37.4371 41.8634C36.4667 43.3072 35.0885 44.4293 33.4779 45.0868C31.8674 45.7442 30.0975 45.9071 28.394 45.5548C26.6905 45.2025 25.1305 44.3509 23.9129 43.1086C23.7227 42.9287 23.5708 42.7122 23.4662 42.4722C23.3616 42.2322 23.3065 41.9736 23.3042 41.7118C23.3019 41.45 23.3525 41.1904 23.4528 40.9486C23.5532 40.7068 23.7013 40.4877 23.8883 40.3045C24.0753 40.1213 24.2973 39.9777 24.5411 39.8822C24.7849 39.7868 25.0454 39.7416 25.3071 39.7492C25.5688 39.7568 25.8263 39.8172 26.0641 39.9266C26.3019 40.0361 26.5152 40.1924 26.6913 40.3862C27.2528 40.959 27.9472 41.3842 28.7128 41.6238C29.4783 41.8634 30.2912 41.91 31.0792 41.7595C31.8671 41.609 32.6056 41.266 33.2289 40.761C33.8522 40.2561 34.341 39.6049 34.6518 38.8654C34.9627 38.1259 35.0858 37.321 35.0104 36.5224C34.9349 35.7238 34.6632 34.9562 34.2194 34.288C33.7756 33.6198 33.1734 33.0717 32.4666 32.6924C31.7597 32.3132 30.97 32.1146 30.1679 32.1143C29.8118 32.1142 29.4626 32.0164 29.1583 31.8316C28.8539 31.6469 28.6061 31.3821 28.4418 31.0663C28.2775 30.7504 28.2029 30.3955 28.2263 30.0402C28.2497 29.685 28.37 29.3429 28.5743 29.0513L33.2406 22.3827H25.3021C24.7859 22.3827 24.2908 22.1776 23.9258 21.8126C23.5608 21.4476 23.3558 20.9526 23.3558 20.4364C23.3558 19.9202 23.5608 19.4251 23.9258 19.0601C24.2908 18.6951 24.7859 18.4901 25.3021 18.4901H36.98C37.336 18.4902 37.6852 18.5879 37.9896 18.7727C38.2939 18.9575 38.5417 19.2222 38.7061 19.5381C38.8704 19.854 38.9449 20.2088 38.9216 20.5641C38.8982 20.9194 38.7778 21.2615 38.5735 21.5531L33.4645 28.8518C35.0796 29.5104 36.4618 30.6354 37.4346 32.0832C38.4075 33.531 38.9268 35.2358 38.9263 36.9801Z" fill="#11639F"/>
</g>
</svg>
