<svg width="63" height="63" viewBox="0 0 63 63" fill="none" xmlns="http://www.w3.org/2000/svg">
<g id="NumberCircleTwo">
<path id="Vector" d="M31.141 5.83899C26.1367 5.83899 21.2448 7.32293 17.0839 10.1032C12.923 12.8834 9.67995 16.8351 7.76489 21.4584C5.84983 26.0818 5.34876 31.1692 6.32505 36.0774C7.30134 40.9855 9.71114 45.4939 13.2497 49.0325C16.7883 52.571 21.2967 54.9808 26.2048 55.9571C31.113 56.9334 36.2004 56.4323 40.8237 54.5173C45.4471 52.6022 49.3988 49.3592 52.179 45.1983C54.9592 41.0373 56.4432 36.1454 56.4432 31.1411C56.4361 24.4328 53.7681 18.0012 49.0245 13.2576C44.281 8.5141 37.8494 5.84607 31.141 5.83899ZM31.141 52.5507C26.9066 52.5507 22.7673 51.295 19.2465 48.9425C15.7258 46.59 12.9817 43.2463 11.3612 39.3342C9.74078 35.4221 9.3168 31.1174 10.1429 26.9644C10.969 22.8113 13.008 18.9965 16.0022 16.0023C18.9964 13.0082 22.8112 10.9691 26.9642 10.143C31.1173 9.31692 35.422 9.7409 39.3341 11.3613C43.2462 12.9818 46.5899 15.7259 48.9424 19.2467C51.2949 22.7674 52.5505 26.9067 52.5505 31.1411C52.5441 36.8173 50.2864 42.2592 46.2727 46.2728C42.2591 50.2865 36.8172 52.5442 31.141 52.5507ZM37.3595 29.9879L29.1947 40.8727H36.98C37.4962 40.8727 37.9912 41.0778 38.3563 41.4428C38.7213 41.8078 38.9263 42.3029 38.9263 42.8191C38.9263 43.3353 38.7213 43.8303 38.3563 44.1953C37.9912 44.5603 37.4962 44.7654 36.98 44.7654H25.3021C24.9406 44.7654 24.5863 44.6647 24.2788 44.4747C23.9714 44.2847 23.7229 44.0128 23.5612 43.6895C23.3996 43.3662 23.3312 43.0043 23.3636 42.6443C23.3961 42.2843 23.5281 41.9404 23.745 41.6513L34.2478 27.6475C34.5841 27.1993 34.8197 26.6838 34.9385 26.1363C35.0573 25.5887 35.0564 25.0219 34.936 24.4747C34.8156 23.9275 34.5785 23.4127 34.2408 22.9655C33.9032 22.5184 33.473 22.1494 32.9797 21.8837C32.4863 21.6181 31.9414 21.4621 31.3822 21.4264C30.8231 21.3907 30.2628 21.4762 29.7397 21.6769C29.2165 21.8777 28.7429 22.189 28.3512 22.5896C27.9594 22.9902 27.6588 23.4707 27.4698 23.9981C27.2975 24.485 26.9389 24.8834 26.4728 25.1059C26.0068 25.3283 25.4714 25.3565 24.9846 25.1842C24.4977 25.0119 24.0993 24.6533 23.8769 24.1872C23.6544 23.7212 23.6263 23.1858 23.7985 22.699C24.174 21.642 24.7734 20.6786 25.5558 19.8748C26.3381 19.071 27.285 18.4458 28.3314 18.0419C29.3779 17.638 30.4992 17.465 31.6187 17.5347C32.7383 17.6044 33.8295 17.9153 34.8177 18.4459C35.806 18.9765 36.6679 19.7145 37.3444 20.6091C38.021 21.5038 38.4962 22.5341 38.7376 23.6295C38.979 24.725 38.9808 25.8596 38.743 26.9558C38.5051 28.052 38.0332 29.0838 37.3595 29.9807V29.9879Z" fill="#11639F"/>
</g>
</svg>
